<?xml version="1.0" encoding="UTF-8"?>
<svg version="1.1" xmlns="http://www.w3.org/2000/svg" width="2000" height="2000">
<path d="M0 0 C660 0 1320 0 2000 0 C2000 660 2000 1320 2000 2000 C1340 2000 680 2000 0 2000 C0 1340 0 680 0 0 Z " fill="#000000" transform="translate(0,0)"/>
<path d="M0 0 C43.89 0 87.78 0 133 0 C136.146272 7.5510528 139.24011263 15.08334383 142.16015625 22.71875 C142.73339882 24.2113031 142.73339882 24.2113031 143.31822205 25.73400879 C144.56787571 28.98874255 145.81517442 32.24437342 147.0625 35.5 C147.95099137 37.81517345 148.83966678 40.13027627 149.72851562 42.4453125 C151.57248838 47.24842543 153.41567395 52.05183932 155.25830078 56.85546875 C159.0875009 66.83620248 162.92634895 76.81322239 166.7651062 86.7902832 C168.84385966 92.19334693 170.9218909 97.59668841 173 103 C173.83332993 105.16666798 174.66666326 107.33333464 175.5 109.5 C180.49999997 122.49999993 180.49999997 122.49999993 181.74996948 125.74992371 C182.58340181 127.91684573 183.41683687 130.08376671 184.25027466 132.25068665 C186.33211566 137.66343768 188.41390946 143.07620687 190.49560547 148.48901367 C194.26335395 158.28574012 198.03145881 168.08232876 201.80130005 177.87825012 C210.99015945 201.75551775 220.1729518 225.63505437 229.3125 249.53125 C230.04164182 251.43750951 230.77080853 253.34375949 231.5 255.25 C232.04188965 256.66659912 232.04188965 256.66659912 232.59472656 258.11181641 C234.99845617 264.39222182 237.41082328 270.66925844 239.82791138 276.9445343 C241.52069376 281.33994175 243.21108001 285.73626896 244.90130615 290.13265991 C245.71248779 292.24056289 246.5248523 294.34801107 247.33843994 296.45498657 C248.46038037 299.36078029 249.57828634 302.26809561 250.6953125 305.17578125 C251.03183838 306.04416626 251.36836426 306.91255127 251.71508789 307.80725098 C252.01809814 308.59829224 252.3211084 309.3893335 252.63330078 310.2043457 C252.89877716 310.8930928 253.16425354 311.5818399 253.43777466 312.29145813 C254 314 254 314 254 316 C254.66 316 255.32 316 256 316 C256.19514946 314.90827484 256.19514946 314.90827484 256.39424133 313.79449463 C256.96618337 311.15600335 257.72685449 308.80536906 258.69213867 306.28808594 C259.21748703 304.90948647 259.21748703 304.90948647 259.75344849 303.5030365 C260.13774017 302.5068782 260.52203186 301.51071991 260.91796875 300.484375 C261.32256317 299.42638199 261.72715759 298.36838898 262.14401245 297.27833557 C263.48792129 293.76737413 264.83764099 290.25867765 266.1875 286.75 C266.89651421 284.90078218 267.60552485 283.05156295 268.31412792 281.20218754 C271.53423326 272.79817772 274.76533819 264.39841627 278 256 C278.47143433 254.77597473 278.94286865 253.55194946 279.42858887 252.29083252 C284.4744631 239.19344831 289.53045722 226.0999819 294.58984375 213.0078125 C299.78155737 199.57282736 304.95647099 186.13141922 310.125 172.6875 C310.53404572 171.62359039 310.94309143 170.55968079 311.36453247 169.46353149 C313.42063434 164.11557721 315.47649706 158.76753103 317.53222656 153.41943359 C320.01811431 146.95250486 322.5050094 140.48596381 324.9921875 134.01953125 C325.40536224 132.94529907 325.81853699 131.87106689 326.24423218 130.76428223 C328.32656016 125.3504426 330.40904588 119.93666369 332.49169922 114.52294922 C336.28102827 104.67238291 340.06924018 94.82139345 343.85237122 84.96844482 C352.25400026 63.08701115 360.67009255 41.2116782 369.1875 19.375 C369.53228394 18.49035065 369.87706787 17.60570129 370.2322998 16.69424438 C371.1888379 14.24101062 372.14681791 11.78834632 373.10546875 9.3359375 C373.38672104 8.61471207 373.66797333 7.89348663 373.95774841 7.15040588 C375.88398067 2.23203866 375.88398067 2.23203866 377 0 C394.32377352 -0.0233285 411.64754216 -0.04097893 428.97132778 -0.05181217 C437.01450054 -0.05697523 445.05766357 -0.06401812 453.10083008 -0.07543945 C460.1087296 -0.08538598 467.11662208 -0.09185335 474.12452847 -0.09408849 C477.83743192 -0.09539566 481.5503152 -0.09848184 485.2632122 -0.10573006 C489.40131411 -0.11374332 493.53938061 -0.11399116 497.67749023 -0.11352539 C499.53756966 -0.1189183 499.53756966 -0.1189183 501.43522644 -0.12442017 C502.55568359 -0.1230455 503.67614075 -0.12167084 504.83055115 -0.12025452 C505.81041709 -0.12117631 506.79028303 -0.1220981 507.79984188 -0.12304783 C510 0 510 0 511 1 C511.3084407 3.43724828 511.55661951 5.85669084 511.76855469 8.30297852 C511.87393083 9.45755444 511.87393083 9.45755444 511.98143578 10.63545513 C512.21587524 13.21623729 512.44385967 15.79754918 512.671875 18.37890625 C512.83570283 20.19679194 512.99992531 22.0146421 513.16452026 23.8324585 C513.60640132 28.72515939 514.04273355 33.61834093 514.47803497 38.51163101 C514.93186929 43.60268646 515.39076401 48.69328567 515.84912109 53.78393555 C516.74693005 63.76450345 517.63910966 73.7455673 518.52941895 83.72680664 C519.16061349 90.80244609 519.79524704 97.87777597 520.4296875 104.953125 C521.31845791 114.87386654 522.20239734 124.79503219 523.08448792 134.71636963 C524.29905998 148.37173996 525.52306737 162.02626588 526.74651337 175.68084335 C527.06429856 179.22773514 527.38200009 182.77463441 527.69970703 186.3215332 C528.14698603 191.31490602 528.59428994 196.30827661 529.04162598 201.30164433 C529.80016654 209.76884955 530.55853174 218.23607047 531.31677437 226.70330238 C531.50389639 228.79285867 531.69102677 230.8824142 531.87815857 232.9719696 C532.43964339 239.24174939 533.00106221 245.51153506 533.56221676 251.78134441 C533.87477166 255.27350398 534.18737364 258.76565933 534.5 262.2578125 C534.56188066 262.94905527 534.62376133 263.64029804 534.68751717 264.35248756 C535.56025544 274.10046352 536.43558814 283.84820371 537.3125515 293.5958004 C537.87561836 299.85548113 538.43790023 306.11523236 539 312.375 C539.06231686 313.06879131 539.12463371 313.76258263 539.18883896 314.47739792 C540.61442607 330.35139509 542.02686721 346.22636654 543.39453125 362.10546875 C543.51144321 363.46211759 543.62835606 364.81876635 543.74526978 366.17541504 C543.92232341 368.23037238 544.09936297 370.28533094 544.2763958 372.34029007 C544.39545064 373.7222197 544.51451564 375.10414846 544.6335907 376.48607635 C544.75256884 377.86693816 544.87151634 379.24780261 544.99043274 380.62866974 C546.70344429 400.51189707 548.48160079 420.38863105 550.30859375 440.26171875 C550.45927527 441.90079539 550.45927527 441.90079539 550.61300087 443.5729847 C551.61763722 454.49537333 552.6259672 465.41741605 553.63917255 476.3390131 C557.11126554 513.77136329 557.11126554 513.77136329 558.265625 527.640625 C558.38438995 529.0133255 558.38438995 529.0133255 558.5055542 530.41375732 C559.03439422 537.00400184 559 543.32696822 559 550 C517.75 550 476.5 550 434 550 C430.34642052 506.06336476 426.82171041 462.12011928 423.40385818 418.16471481 C420.08194331 375.45089942 416.64366253 332.74749042 413.11664104 290.05012608 C412.74719814 285.5766799 412.37846823 281.10317504 412.00972557 276.6296711 C411.75936899 273.59783411 411.50760279 270.56611671 411.25569153 267.53440857 C408.78698048 237.71016479 408.78698048 237.71016479 409 225 C407.35 225 405.7 225 404 225 C403.74959961 226.24773193 403.49919922 227.49546387 403.24121094 228.78100586 C401.96435623 234.50823065 400.07932703 239.97190864 398.140625 245.50390625 C397.76009979 246.6023587 397.37957458 247.70081116 396.98751831 248.83255005 C395.74651165 252.41089952 394.49837031 255.98671352 393.25 259.5625 C392.37835663 262.07058602 391.5070801 264.57879676 390.63623047 267.0871582 C388.09808117 274.39397497 385.54970762 281.69720995 383 289 C382.35768461 290.84144946 381.71542607 292.68291874 381.07324219 294.52441406 C377.72199811 304.13131767 374.3568562 313.73331777 370.98779297 323.33398438 C367.11056553 334.38382315 363.23988601 345.43595807 359.36997604 356.48836136 C358.91541719 357.78657282 358.4608401 359.08477789 358.00624466 360.38297653 C351.30947513 379.50746372 344.64310598 398.64228669 338.00967407 417.78884888 C333.31981424 431.32521859 328.61230319 444.85515799 323.875 458.375 C323.59420593 459.1763739 323.31341187 459.9777478 323.02410889 460.80340576 C322.45927301 462.41535575 321.89443333 464.02730439 321.32958984 465.63925171 C321.04937988 466.43892365 320.76916992 467.23859558 320.48046875 468.0625 C320.19993652 468.86305817 319.9194043 469.66361633 319.63037109 470.48843384 C316.46132994 479.53404316 313.30178288 488.58296312 310.14434814 497.63262939 C309.52545811 499.40639657 308.9064477 501.18012176 308.28729248 502.95379639 C303.1653942 517.62690861 298.08377495 532.31353902 293 547 C267.92 547 242.84 547 217 547 C214.81375 540.565 212.6275 534.13 210.375 527.5 C203.90102896 508.48509905 197.31308756 489.51273204 190.65419006 470.56193542 C187.27498892 460.94246403 183.91885643 451.31496061 180.5625 441.6875 C179.93361199 439.88402684 179.30470572 438.08056005 178.67578125 436.27709961 C177.41413425 432.65921141 176.15258924 429.04128768 174.89111328 425.42333984 C172.0737773 417.34341573 169.25508492 409.26396479 166.43649292 401.18447876 C164.87427287 396.70633862 163.3121409 392.22816775 161.75 387.75 C161.12500042 385.95833319 160.50000042 384.16666652 159.875 382.375 C158.625 378.79166667 157.375 375.20833333 156.125 371.625 C155.81559479 370.7380394 155.50618958 369.8510788 155.18740845 368.9372406 C154.56271109 367.14643948 153.93801627 365.35563748 153.31332397 363.56483459 C151.7462143 359.07241779 150.17906001 354.58001656 148.61181641 350.08764648 C145.8543552 342.1834864 143.0970848 334.27926045 140.34170532 326.37437439 C139.45337066 323.82594874 138.56483373 321.27759368 137.67626953 318.72924805 C136.47601404 315.28694981 135.27659769 311.84436064 134.07763672 308.40161133 C130.69549355 298.69532985 127.2967499 288.99503544 123.87973022 279.30097961 C122.18092823 274.48138328 120.48534574 269.66065576 118.79029274 264.8397398 C117.35976061 260.77219792 115.924868 256.70622787 114.48683929 252.64133072 C113.80563752 250.71326495 113.12671562 248.78441453 112.4487915 246.85519409 C111.61368351 244.47871296 110.77497296 242.10349365 109.93206787 239.72976685 C109.37328949 238.1342952 109.37328949 238.1342952 108.80322266 236.5065918 C108.4776236 235.58371872 108.15202454 234.66084564 107.81655884 233.71000671 C106.94637257 230.82202054 106.43487032 227.98205357 106 225 C104.35 225 102.7 225 101 225 C100.97861717 225.83650589 100.97861717 225.83650589 100.95680237 226.68991089 C100.43495008 245.43507028 98.96849567 264.05916414 97.39141846 282.73800659 C96.6717049 291.26340461 95.96987199 299.79028683 95.26732635 308.31711388 C95.10140547 310.33063836 94.93531206 312.34414864 94.7690506 314.35764503 C92.88789818 337.14917915 91.12469239 359.94946281 89.37025833 382.75104141 C85.07820228 438.51452465 80.54470661 494.25633304 76 550 C34.75 550 -6.5 550 -49 550 C-49 536.50051212 -49 536.50051212 -48.54443359 531.55053711 C-48.44343353 530.4235994 -48.34243347 529.29666168 -48.2383728 528.13557434 C-48.12619415 526.94485825 -48.0140155 525.75414215 -47.8984375 524.52734375 C-47.71917464 522.55178045 -47.53991183 520.57621714 -47.36065102 518.60065365 C-47.16892269 516.49938209 -46.9745212 514.39837381 -46.77929688 512.29742432 C-46.36558189 507.84445136 -45.95959231 503.39079325 -45.5546875 498.93701172 C-45.05927666 493.4931301 -44.56216453 488.04940946 -44.06264114 482.60590363 C-42.81325118 468.99054775 -41.58868848 455.37299724 -40.36978149 441.75488281 C-40.12142886 438.98027308 -39.8726973 436.20569772 -39.62362671 433.43115234 C-38.2612983 418.25423646 -36.9130265 403.07627203 -35.60546875 387.89453125 C-35.54779894 387.22525038 -35.49012913 386.55596951 -35.43071175 385.86640739 C-35.19525056 383.13377201 -34.95985135 380.40113129 -34.72445393 377.66849041 C-34.54551506 375.59148966 -34.36652472 373.51449335 -34.1875 371.4375 C-34.12834034 370.75109814 -34.06918068 370.06469627 -34.0082283 369.35749435 C-31.21836915 337.00830766 -28.23473912 304.67722112 -25.25341797 272.34521484 C-24.86942408 268.18066794 -24.48547372 264.01611703 -24.1015625 259.8515625 C-24.00826031 258.83958675 -23.91495811 257.82761101 -23.81882858 256.78496933 C-22.29132362 240.21304222 -20.78510154 223.63940848 -19.3125 207.0625 C-19.21732086 205.99117828 -19.12214172 204.91985657 -19.02407837 203.81607056 C-18.64411194 199.53680436 -18.26448856 195.25750796 -17.88539124 190.97816467 C-16.39514709 174.16051205 -14.88412855 157.34470654 -13.37695312 140.52856445 C-13.18664347 138.40515207 -12.99633433 136.28173964 -12.80602646 134.1583271 C-12.6771626 132.72055542 -12.54828936 131.28278458 -12.41940689 129.84501457 C-11.56740812 120.34022172 -10.716966 110.83529113 -9.86810684 101.33021736 C-9.2457898 94.36211669 -8.62268426 87.39408679 -7.99909592 80.42609978 C-7.62375035 76.23152662 -7.24877847 72.03692091 -6.87481689 67.84222412 C-5.46928681 52.07953713 -4.05423335 36.3177244 -2.55068016 20.56403351 C-2.36092904 18.57292138 -2.17338978 16.58159885 -1.98591614 14.590271 C-1.8709227 13.39806946 -1.75592926 12.20586792 -1.63745117 10.97753906 C-1.53808762 9.93889709 -1.43872406 8.90025513 -1.33634949 7.83013916 C-1.02387096 5.20085697 -0.51927345 2.59636723 0 0 Z " fill="#FEFEFE" transform="translate(1093,731)"/>
<path d="M0 0 C1.40101194 0.13442479 2.80205097 0.26856773 4.203125 0.40234375 C51.45406825 5.50661231 96.72606527 21.56959177 136 48 C135.41717127 51.48372286 134.5259362 54.32055465 132.94358826 57.47358704 C132.51309174 58.33870407 132.08259521 59.20382111 131.63905334 60.09515381 C131.16576096 61.03095276 130.69246857 61.96675171 130.20483398 62.9309082 C129.70725586 63.92650253 129.20967773 64.92209686 128.69702148 65.94786072 C127.05238548 69.2350442 125.39929143 72.51789644 123.74609375 75.80078125 C122.60356742 78.08023824 121.46157097 80.3599609 120.32008362 82.63993835 C117.62229797 88.025229 114.9191861 93.40781272 112.21346861 98.7891199 C109.13258042 104.91733429 106.05852729 111.04896797 102.98503768 117.18089545 C96.66427877 129.79107739 90.33496745 142.39695072 84 155 C79.99836267 153.46378855 76.66079599 151.59138806 73.0625 149.25 C66.34219413 145.03223878 59.41377209 141.83420661 52 139 C50.64503418 138.47937988 50.64503418 138.47937988 49.26269531 137.94824219 C38.44664613 133.83202718 27.60292074 129.90544583 16.375 127.0625 C15.64394043 126.87550537 14.91288086 126.68851074 14.15966797 126.49584961 C1.70708208 123.53272596 -10.7967687 122.65924094 -23.5625 122.75 C-24.25388062 122.75310181 -24.94526123 122.75620361 -25.65759277 122.75939941 C-44.81163736 122.85945211 -63.34846298 124.52801695 -82 129 C-82.72493652 129.17370117 -83.44987305 129.34740234 -84.19677734 129.52636719 C-96.43217889 132.564858 -107.68113582 137.51379162 -119 143 C-119.68868164 143.32871094 -120.37736328 143.65742187 -121.08691406 143.99609375 C-131.66613143 149.09782739 -140.86230524 155.65186801 -150 163 C-150.88816406 163.71285156 -151.77632812 164.42570313 -152.69140625 165.16015625 C-158.57615268 170.14428062 -163.29059732 175.91702154 -168 182 C-168.7425 182.9384375 -169.485 183.876875 -170.25 184.84375 C-186.58643386 205.94497706 -197.7824247 229.82595153 -203 256 C-203.18022705 256.87720703 -203.3604541 257.75441406 -203.54614258 258.65820312 C-205.09084075 266.87271929 -205.34828087 274.90487848 -205.3125 283.25 C-205.31034485 283.93519714 -205.3081897 284.62039429 -205.30596924 285.32635498 C-205.25434227 295.560134 -204.71822006 305.08052531 -202 315 C-201.78537109 315.82145508 -201.57074219 316.64291016 -201.34960938 317.48925781 C-198.60840779 327.9518881 -195.64711522 338.20301149 -191 348 C-190.47664062 349.12535156 -189.95328125 350.25070312 -189.4140625 351.41015625 C-185.56111044 359.42115838 -181.15338889 366.76394455 -176 374 C-175.33484375 374.95261719 -174.6696875 375.90523437 -173.984375 376.88671875 C-146.65060004 414.79967699 -107.63296551 434.53555158 -62.3125 442.45703125 C-15.01022692 449.08425854 37.75781591 441.62006027 77.765625 414.34765625 C79.91539004 413.05103223 81.57936897 412.5409888 84 412 C84.5868306 413.17699211 84.5868306 413.17699211 85.18551636 414.37776184 C88.91821492 421.86340533 92.65296306 429.34802213 96.38987541 436.831563 C98.30983096 440.67663754 100.22906012 444.52207067 102.14648438 448.3684082 C109.97613528 464.07339782 117.80387212 479.7688433 126.06878662 495.25088501 C128.13096933 499.12432022 130.14041739 503.02387347 132.125 506.9375 C132.50914062 507.67677734 132.89328125 508.41605469 133.2890625 509.17773438 C133.65 509.89123047 134.0109375 510.60472656 134.3828125 511.33984375 C134.85291748 512.25817993 134.85291748 512.25817993 135.33251953 513.19506836 C136 515 136 515 136 519 C133.97176824 520.63984695 132.09928802 521.92867256 129.875 523.25 C129.23755859 523.64131104 128.60011719 524.03262207 127.94335938 524.43579102 C125.97071979 525.6385667 123.98584111 526.81918909 122 528 C120.91976563 528.66386719 119.83953125 529.32773438 118.7265625 530.01171875 C99.98936824 541.19505624 79.79279624 548.61246421 59 555 C58.2570166 555.22913086 57.5140332 555.45826172 56.74853516 555.69433594 C52.53639458 556.96709994 48.29289125 558.04194263 44 559 C43.12794922 559.1954541 42.25589844 559.3909082 41.35742188 559.59228516 C-1.34888527 568.99022999 -49.71781624 573.08859052 -93 565 C-94.12986328 564.79068848 -95.25972656 564.58137695 -96.42382812 564.36572266 C-111.26148071 561.54016968 -125.76721832 558.06780159 -140 553 C-140.80356934 552.71962891 -141.60713867 552.43925781 -142.43505859 552.15039062 C-179.82322088 538.99301054 -215.55279602 518.94207757 -244.78515625 492.03125 C-246.75839244 490.22158012 -248.77107813 488.48160109 -250.8125 486.75 C-259.4681794 479.20266979 -267.7090419 470.8719448 -275 462 C-275.42071777 461.49307617 -275.84143555 460.98615234 -276.27490234 460.46386719 C-302.54443451 428.7098835 -320.97334656 393.32409167 -333 354 C-333.28512451 353.09652832 -333.57024902 352.19305664 -333.86401367 351.26220703 C-353.75588851 287.33692644 -340.31937281 216.02659756 -310.33984375 157.76953125 C-298.99944249 136.29988023 -285.0884546 116.35868832 -268.47265625 98.66015625 C-266.47078103 96.50648006 -264.56812291 94.32019017 -262.6875 92.0625 C-253.40180039 81.40605426 -242.24793453 72.47925978 -231 64 C-230.41669922 63.55446777 -229.83339844 63.10893555 -229.23242188 62.64990234 C-218.90143706 54.77125064 -208.1093373 47.72996978 -197 41 C-196.33419922 40.59539551 -195.66839844 40.19079102 -194.98242188 39.77392578 C-171.04950659 25.38349339 -144.53927525 14.77130253 -117.57226562 7.67919922 C-115.90153104 7.23804664 -114.23334306 6.78709105 -112.56835938 6.32470703 C-76.01341888 -3.81206437 -37.48136481 -3.99927034 0 0 Z " fill="#FEFEFE" transform="translate(694,723)"/>
<path d="M0 0 C1.39412109 0.4021875 1.39412109 0.4021875 2.81640625 0.8125 C21.42436028 6.51608744 36.64265104 18.83480692 45.89331055 36.1003418 C51.51978316 46.9632447 53.55304852 57.60287314 53.4375 69.8125 C53.42775146 70.98611084 53.41800293 72.15972168 53.40795898 73.36889648 C52.68206991 109.80852804 38.03364893 143.71229872 17 173 C16.49823242 173.70382812 15.99646484 174.40765625 15.47949219 175.1328125 C9.65634738 183.25151214 3.54494352 190.90610605 -3.33203125 198.15625 C-5.37923783 200.33833842 -7.34543542 202.54345546 -9.296875 204.80859375 C-13.16115295 209.24782259 -17.26588646 213.41341542 -21.4375 217.5625 C-22.14970703 218.27857422 -22.86191406 218.99464844 -23.59570312 219.73242188 C-28.23312562 224.36142035 -33.03004293 228.7324149 -38 233 C-39.66878324 234.47677835 -41.33591759 235.95542661 -43 237.4375 C-43.763125 238.11683594 -44.52625 238.79617188 -45.3125 239.49609375 C-45.869375 239.99238281 -46.42625 240.48867188 -47 241 C-49.95483335 239.62678919 -52.41504382 238.03258055 -54.9765625 236.0234375 C-55.72566895 235.43836426 -56.47477539 234.85329102 -57.24658203 234.25048828 C-58.03145996 233.63157715 -58.81633789 233.01266602 -59.625 232.375 C-60.82745361 231.43309814 -60.82745361 231.43309814 -62.05419922 230.47216797 C-67.73211153 226.01825051 -73.38974541 221.5389497 -79 217 C-76.06159774 212.95296978 -73.08841823 209.04608463 -69.6875 205.375 C-52.65284555 186.13145629 -37.51407799 156.53835748 -34 131 C-34.66644531 130.85304688 -35.33289063 130.70609375 -36.01953125 130.5546875 C-53.33471261 126.34092309 -67.51368377 115.24264631 -77.1875 100.375 C-86.22762616 84.15230785 -88.17853075 64.95946872 -83.1015625 46.9765625 C-79.34090701 36.81479128 -74.25955932 28.07589531 -67 20 C-66.48179687 19.38898437 -65.96359375 18.77796875 -65.4296875 18.1484375 C-49.67410571 0.80938015 -22.42064011 -7.13568293 0 0 Z " fill="#FDDD58" transform="translate(964,723)"/>
</svg>
